<?xml version="1.0" encoding="iso-8859-1"?>
<!-- Generator: Adobe Illustrator 19.0.0, SVG Export Plug-In . SVG Version: 6.00 Build 0)  -->
<svg version="1.1" id="Layer_1" xmlns="http://www.w3.org/2000/svg" xmlns:xlink="http://www.w3.org/1999/xlink" x="0px" y="0px"
	 viewBox="0 0 512 512" style="enable-background:new 0 0 512 512;" xml:space="preserve">
<path style="fill:inherit;" d="M0,256.006C0,397.402,114.606,512.004,255.996,512C397.394,512.004,512,397.402,512,256.006
	C512.009,114.61,397.394,0,255.996,0C114.606,0,0,114.614,0,256.006z"/>

<path style="fill:#fff;" d="M418.608,206.511h-78.784l41.122-70.603c0.946-1.63,1.209-3.569,0.718-5.386
	c-0.491-1.823-1.684-3.37-3.321-4.308l-67.986-38.87c-1.622-0.925-3.555-1.181-5.372-0.684c-1.809,0.497-3.348,1.692-4.281,3.321
	l-41.19,72.253l-41.156-71.742c-1.933-3.362-6.207-4.563-9.597-2.638l-67.986,38.256c-1.65,0.925-2.859,2.479-3.356,4.302
	c-0.497,1.829-0.242,3.777,0.711,5.413l41.129,70.686H93.392c-3.908,0-7.07,3.162-7.07,7.07v84.839c0,3.908,3.163,7.07,7.07,7.07
	h85.868l-41.129,70.603c-0.946,1.622-1.209,3.563-0.718,5.386c0.491,1.823,1.684,3.37,3.321,4.308l67.986,38.87
	c1.077,0.614,2.285,0.932,3.507,0.932c0.622,0,1.25-0.083,1.865-0.249c1.809-0.497,3.348-1.692,4.281-3.321l41.184-72.259
	l41.17,71.736c1.933,3.356,6.199,4.55,9.597,2.638l67.979-38.242c1.65-0.925,2.859-2.479,3.356-4.302
	c0.497-1.829,0.242-3.777-0.711-5.413l-41.129-70.686h78.791c3.908,0,7.07-3.162,7.07-7.07v-84.839
	C425.678,209.673,422.516,206.511,418.608,206.511z M411.538,291.35h-84.017c-2.527,0-4.867,1.354-6.131,3.549
	c-1.257,2.189-1.25,4.889,0.02,7.077l43.703,75.111l-55.614,31.29l-43.835-76.374c-1.257-2.195-3.597-3.549-6.131-3.549h-0.014
	c-2.533,0.006-4.875,1.367-6.131,3.569l-43.801,76.844l-55.655-31.822l43.739-75.07c1.27-2.181,1.277-4.881,0.02-7.077
	c-1.264-2.195-3.597-3.549-6.131-3.549h-91.099v-70.699h91.088c2.527,0,4.867-1.354,6.131-3.542c1.257-2.195,1.25-4.895-0.02-7.084
	l-43.697-75.111l55.62-31.303l43.821,76.388c1.257,2.195,3.597,3.549,6.131,3.549h0.006c2.541,0,4.881-1.367,6.138-3.569
	l43.807-76.844l55.655,31.822l-43.731,75.07c-1.27,2.181-1.277,4.889-0.02,7.077c1.264,2.195,3.597,3.549,6.131,3.549h84.017v70.699
	H411.538z"/>
</svg>
