<?xml version="1.0" encoding="iso-8859-1"?>
<!-- Generator: Adobe Illustrator 19.0.0, SVG Export Plug-In . SVG Version: 6.00 Build 0)  -->
<svg version="1.1" id="Capa_1" xmlns="http://www.w3.org/2000/svg" xmlns:xlink="http://www.w3.org/1999/xlink" x="0px" y="0px"
	 viewBox="0 0 512 512" style="enable-background:new 0 0 512 512;" xml:space="preserve">

	<circle style="fill:white;" cx="256" cy="256" r="246.691"/>
		<path style="fill:inherit;stroke:inherit" d="M256,512C114.615,512,0,397.385,0,256S114.615,0,256,0s256,114.615,256,256
			C511.837,397.317,397.317,511.837,256,512z M256,18.618C124.898,18.618,18.618,124.898,18.618,256S124.898,493.382,256,493.382
			S493.382,387.102,493.382,256C493.232,124.96,387.04,18.768,256,18.618z"/>
		<path style="fill:inherit; stroke:inherit" d="M256,512c-60.325-0.034-118.704-21.352-164.855-60.2c-2.078-1.752-3.286-4.324-3.309-7.041
			c-0.023-2.717,1.143-5.309,3.191-7.095c4.128-3.674,8.65-6.882,13.482-9.564l73.609-40.145c6.67-3.639,10.819-10.63,10.818-18.227
			v-26.936c-13.292-17.813-23.063-37.998-28.791-59.473c-7.893-6.436-12.473-16.08-12.473-26.264v-33
			c0.028-8.102,2.956-15.926,8.255-22.055v-43.446c-1.609-19.799,4.694-39.429,17.527-54.591
			C190.609,84.391,218.382,74.473,256,74.473s65.391,9.918,82.545,29.491c12.833,15.162,19.135,34.792,17.527,54.591V202
			c5.298,6.129,8.227,13.953,8.255,22.055v33c0.016,13.107-7.549,25.04-19.409,30.618c-5.825,16.967-14.024,33.024-24.355,47.69
			c-1.991,2.809-3.918,5.355-5.745,7.609v27.527c-0.025,7.866,4.425,15.063,11.473,18.556l78.818,39.409
			c5.314,2.701,10.285,6.028,14.809,9.909c2.105,1.774,3.316,4.388,3.309,7.14c-0.007,2.752-1.232,5.36-3.346,7.123
			C373.869,490.966,315.886,511.969,256,512z M112.436,445c84.392,64.16,201.108,64.543,285.918,0.936
			c-0.527-0.282-1.045-0.555-1.573-0.818l-78.818-39.409c-13.375-6.626-21.816-20.283-21.764-35.209v-30.927
			c0-2.258,0.82-4.439,2.309-6.136c2.431-2.829,4.718-5.778,6.854-8.836c10.087-14.34,17.923-30.138,23.236-46.845
			c0.933-2.889,3.217-5.142,6.118-6.036c6.46-1.982,10.901-7.907,10.991-14.664v-33c-0.015-4.362-1.902-8.507-5.182-11.382
			c-1.956-1.764-3.073-4.275-3.073-6.909v-47.718c0-0.407,0.027-0.814,0.082-1.218c1.087-14.788-3.632-29.417-13.155-40.782
			c-13.49-15.227-36.49-22.954-68.381-22.954c-32.018,0-55.082,7.791-68.545,23.145c-9.502,11.294-14.169,25.878-12.991,40.591
			c0.055,0.404,0.082,0.811,0.082,1.218v47.718c0,2.634-1.117,5.145-3.073,6.909c-3.28,2.875-5.167,7.02-5.182,11.382v33
			c0.019,5.256,2.716,10.139,7.155,12.955c2.034,1.317,3.475,3.375,4.018,5.736c5.182,21.023,14.697,40.731,27.937,57.864
			c1.388,1.678,2.149,3.786,2.155,5.964v30.154c0.003,14.413-7.871,27.676-20.527,34.573l0,0l-73.609,40.145
			C113.091,444.627,112.764,444.809,112.436,445z"/>
</svg>
